<svg xmlns="http://www.w3.org/2000/svg" viewBox="0 0 59.16 62.35"><defs><style>.cls-1{fill:#53b7e8;}.cls-2{fill:#29abe2;}</style></defs><title>N_Ring_M_svg</title><g id="Layer_2" data-name="Layer 2"><g id="Layer_1-2" data-name="Layer 1"><path class="cls-1" d="M29.58,2.14A29.54,29.54,0,0,0,22.43,3l2.78,2.49a26.3,26.3,0,0,1,4.37-.37A26.57,26.57,0,0,1,45.19,53.22c-.14,1.35-.29,2.66-.43,3.89a29.58,29.58,0,0,0-15.18-55Z"/><path class="cls-1" d="M33.54,58a27.35,27.35,0,0,1-4,.29,26.56,26.56,0,0,1-18.14-46q0-2.09.12-4.05a29.57,29.57,0,0,0,25,52.2Z"/><path class="cls-2" d="M44.19,32.5,44.13,32a21.53,21.53,0,0,0-1.46-5.26c-1.2-2.74-5-6.55-5.14-6.67L15.06,0l-.13,2c0,.08-.48,7.47-.64,15.47-.22,10.83.22,17.61,1.32,20.15a20.72,20.72,0,0,0,5.62,7.59l.09.09L42,62.35S45.21,40.4,44.19,32.5ZM28.72,31.09a4.77,4.77,0,0,1,6.21,2.56,4.71,4.71,0,0,1-2.59,6.16,4.77,4.77,0,0,1-6.21-2.57A4.69,4.69,0,0,1,28.72,31.09ZM17.45,21.21c.16-5.46.57-10.77.81-12.77L31.82,19.61c.12.13,2,1.56,2.72,2.18l.93.7c-3.23-1.33-5.69-1.58-10.07.12a14.07,14.07,0,0,0-8,8.37h0C17.52,29.43,17.21,28.94,17.45,21.21Z"/></g></g></svg>